<?xml version="1.0" standalone="no"?>
<!DOCTYPE svg PUBLIC "-//W3C//DTD SVG 20010904//EN"
 "http://www.w3.org/TR/2001/REC-SVG-20010904/DTD/svg10.dtd">
<svg version="1.0" xmlns="http://www.w3.org/2000/svg"
 width="260.000000pt" height="260.000000pt" viewBox="0 0 260.000000 260.000000"
 preserveAspectRatio="xMidYMid meet">
<metadata>
Created by potrace 1.11, written by Peter Selinger 2001-2013
</metadata>
<g transform="translate(0.000000,260.000000) scale(0.100000,-0.100000)"
fill="#000000" stroke="none">
<path d="M1125 2499 c-609 -89 -1053 -625 -1022 -1234 28 -548 409 -995 947
-1111 118 -26 362 -26 480 0 469 101 824 457 926 926 27 125 25 372 -4 498
-127 550 -614 937 -1172 931 -52 -1 -122 -5 -155 -10z m674 -280 c162 -37 303
-178 340 -340 64 -275 -155 -549 -439 -549 -245 0 -450 205 -450 450 0 203
150 393 347 439 52 12 149 13 202 0z"/>
</g>
</svg>
